<?xml version="1.0" encoding="UTF-8" standalone="no"?>
<!-- Created with Inkscape (http://www.inkscape.org/) -->

<svg
   xmlns:dc="http://purl.org/dc/elements/1.1/"
   xmlns:cc="http://creativecommons.org/ns#"
   xmlns:rdf="http://www.w3.org/1999/02/22-rdf-syntax-ns#"
   xmlns:svg="http://www.w3.org/2000/svg"
   xmlns="http://www.w3.org/2000/svg"
   xmlns:sodipodi="http://sodipodi.sourceforge.net/DTD/sodipodi-0.dtd"
   xmlns:inkscape="http://www.inkscape.org/namespaces/inkscape"
   width="470.68225mm"
   height="214.32602mm"
   viewBox="0 0 470.68224 214.32602"
   version="1.1"
   id="svg8"
   inkscape:version="0.92.5 (2060ec1f9f, 2020-04-08)"
   sodipodi:docname="djengu-logo.svg">
  <defs
     id="defs2" />
  <sodipodi:namedview
     id="base"
     pagecolor="#ffffff"
     bordercolor="#666666"
     borderopacity="1.0"
     inkscape:pageopacity="0.0"
     inkscape:pageshadow="2"
     inkscape:zoom="0.5"
     inkscape:cx="1218.7964"
     inkscape:cy="573.59837"
     inkscape:document-units="mm"
     inkscape:current-layer="g862"
     showgrid="false"
     fit-margin-top="0"
     fit-margin-left="0"
     fit-margin-right="0"
     fit-margin-bottom="0"
     inkscape:window-width="2560"
     inkscape:window-height="1403"
     inkscape:window-x="0"
     inkscape:window-y="0"
     inkscape:window-maximized="1" />
  <metadata
     id="metadata5">
    <rdf:RDF>
      <cc:Work
         rdf:about="">
        <dc:format>image/svg+xml</dc:format>
        <dc:type
           rdf:resource="http://purl.org/dc/dcmitype/StillImage" />
        <dc:title></dc:title>
      </cc:Work>
    </rdf:RDF>
  </metadata>
  <g
     inkscape:label="Layer 1"
     inkscape:groupmode="layer"
     id="layer1"
     transform="translate(313.50183,-20.898927)">
    <g
       id="g862"
       transform="matrix(1,0,0,0.98097732,0,4.3331855)">
      <g
         id="g938">
        <g
           id="g929">
          <g
             id="g923"
             transform="translate(-261.18155,-10.403255)">
            <path
               style="fill:#000000;stroke-width:0.26458332"
               d="m 328.46223,245.52699 c -4.91967,-0.72169 -8.17518,-2.23841 -13.24233,-6.16951 -0.83468,-0.64755 -2.17446,-1.42312 -2.97729,-1.7235 -8.31441,-3.11082 -14.01982,-9.61723 -17.44447,-19.89358 -1.76936,-5.30932 -2.53461,-10.97009 -2.53461,-18.74926 0,-6.3936 0.45362,-9.87238 2.91665,-22.36747 1.88681,-9.57191 2.15125,-11.56136 2.33875,-17.5948 l 0.16856,-5.42395 1.4,3.65956 c 3.68535,9.63345 4.31182,19.16898 5.10105,27.996 0.16914,1.89177 0.0892,12.97943 0.42088,13.0212 0.0157,0.0122 0.0512,-0.0224 0.0605,-0.0641 2.22234,-9.92262 5.34442,-17.0663 12.27079,-25.13029 2.72577,-2.81308 4.06844,-4.42528 5.62866,-5.55195 0.305,-0.43629 2.00611,-1.46038 2.08568,-1.3808 0.0408,0.0408 0.43503,0.0407 0.42829,0.47275 -0.0255,1.63565 -0.21034,5.36113 -0.28208,7.87974 -0.23646,8.30142 -0.29001,14.66379 -2.26153,20.69916 -1.46561,4.48662 -1.80722,4.37673 -3.16271,7.21438 -3.94286,8.2542 -4.96941,12.27408 -4.99992,19.57917 -0.0204,4.88351 0.15926,6.20008 1.35385,9.92187 0.56225,1.75171 0.89948,2.33158 1.95587,3.36311 3.0816,3.00907 7.42705,4.02494 12.81073,2.99487 2.55011,-0.48792 4.33502,-1.30166 7.55038,-3.44221 8.15807,-5.43104 14.36396,-15.47573 16.79646,-27.1863 1.21604,-5.85429 1.15202,-14.68604 -0.15257,-21.04671 -0.57837,-2.81988 -1.22147,-5.03891 -3.19923,-11.03901 -3.59867,-10.91757 -4.6103,-15.79362 -5.37951,-25.92916 -0.47145,-6.21208 -0.60047,-7.15376 -1.11892,-8.16634 -0.25058,-0.4894 -0.29721,-0.8489 -0.13161,-1.0145 0.36512,-0.36512 0.0588,-1.329 -0.37005,-1.16443 -0.55742,0.2139 -0.73028,-0.35588 -0.26421,-0.87088 0.53146,-0.58726 0.58999,-1.29053 0.0716,-0.86031 -0.59346,0.49253 -1.45305,-1.00766 -1.77822,-3.10339 -0.30627,-1.97394 -0.18319,-2.49719 0.85634,-3.64048 0.51,-0.56091 0.50808,-0.57204 -0.34239,-1.98437 2.59614,-5.37271 11.91279,-1.33103 17.87193,-1.02343 0.78644,0 1.28951,1.23141 1.1309,2.76819 -0.12894,1.24938 -0.0558,1.57081 0.58531,2.571 1.14496,1.78635 1.73653,2.21539 2.54606,1.84654 0.37006,-0.16861 0.83611,-0.30656 1.03568,-0.30656 0.44377,0 1.46434,1.59281 1.46434,2.28541 0,0.28496 1.09938,1.59092 2.53511,3.01148 3.02016,2.98824 4.48628,4.95724 6.03563,8.10586 1.83957,3.7384 2.98035,7.60843 3.77045,12.791 0.56382,3.69839 0.63519,13.61424 0.1314,18.25625 -2.82427,26.0233 -13.5904,48.76861 -28.35542,59.90572 -2.83904,2.14146 -7.40469,4.57856 -10.17864,5.43325 -3.82749,1.17931 -9.29234,1.61613 -13.14609,1.05081 z m 17.69948,-107.61292 c -0.16433,-1.38751 -0.91548,-3.49145 -1.24651,-3.49145 -0.42097,0 -0.44953,0.69841 -0.0864,2.11315 0.3593,1.39982 0.98205,2.64935 1.3204,2.64935 0.0897,0 0.0953,-0.57197 0.0125,-1.27105 z m -2.03984,-2.6977 c 0,-0.14552 -0.11906,-0.26458 -0.26458,-0.26458 -0.14552,0 -0.26459,0.11906 -0.26459,0.26458 0,0.14553 0.11907,0.26459 0.26459,0.26459 0.14552,0 0.26458,-0.11906 0.26458,-0.26459 z"
               id="path826"
               inkscape:connector-curvature="0"
               sodipodi:nodetypes="cccsssscsscscccssscsscssscsscsccccccccccsscccsscccsssccssssss" />
            <path
               sodipodi:nodetypes="ccssccssscccsscsccscscccsccscssccccscccsssccsscsscccccccccscccsccccscccccssscccccccsscsccscccsccscssccscccsccccssccscccccscccsccccccccccccssccccccsccsccscccccsscccccsccssccccscscc"
               inkscape:connector-curvature="0"
               id="path903"
               d="m 342.05174,104.72161 -0.34164,-1.16663 -0.65422,0.5042 c -1.19186,0.91858 -2.24245,1.49053 -2.7446,1.49421 -0.96039,0.007 -7.7572,-3.43649 -10.4165,-5.27741 -0.71443,-0.494561 -2.69408,-2.015346 -4.39924,-3.379508 -7.64621,-6.11716 -10.76462,-8.293101 -12.63104,-8.813627 -1.43743,-0.400885 -3.31704,-0.271544 -5.3069,0.36518 -1.51715,0.485462 -2.47016,0.620077 -5.41521,0.764915 -1.96572,0.09667 -3.91455,0.286225 -4.33074,0.42122 -1.60744,0.521403 -2.0513,0.04075 -0.84851,-0.918835 l 0.66918,-0.533865 -2.6728,-0.953239 c -2.9522,-1.052887 -4.29737,-1.670462 -4.29737,-1.972957 0,-0.109559 0.33477,-0.311821 0.74392,-0.449473 0.88897,-0.29908 2.35611,-0.06984 5.23516,0.817977 2.39243,0.737763 4.83401,0.794946 6.45788,0.151249 0.58576,-0.232194 1.10193,-0.535037 1.14703,-0.67299 0.12605,-0.385485 -1.1572,-0.751517 -3.14988,-0.898466 -2.12324,-0.156575 -2.85516,-0.560213 -2.44218,-1.346815 0.35467,-0.675564 1.00688,-0.778406 3.19873,-0.504376 1.05278,0.13162 2.89144,0.239588 4.0859,0.239931 3.02731,9e-4 5.43486,0.349158 7.05827,1.021094 0.76108,0.315012 4.11304,1.864685 7.44881,3.443714 3.33577,1.579032 7.18598,3.297279 8.55603,3.818328 4.90009,1.863576 7.37822,3.115954 8.91307,4.504419 l 0.93632,0.847025 0.70616,-1.298795 c 0.38839,-0.714338 1.19396,-1.982466 1.79016,-2.818066 0.5962,-0.835598 1.08401,-1.591441 1.08401,-1.67965 0,-0.08821 -0.35167,-0.648732 -0.78148,-1.245606 -0.42981,-0.596875 -0.96592,-1.580049 -1.19135,-2.184835 -0.49865,-1.337811 -0.54022,-3.674482 -0.0923,-5.191516 1.15289,-4.618802 6.79105,-5.664945 10.26766,-9.122696 0.63406,-0.646362 0.89272,-1.159927 1.17824,-2.33937 0.45421,-1.876269 1.13148,-2.799949 2.89185,-3.944001 l 1.37374,-0.892784 0.0435,-1.670715 c 0.0596,-2.292951 -0.0167,-3.304909 -0.28833,-3.822272 -0.33951,-0.64669 -1.83663,-0.430518 -4.03823,0.583086 -1.95755,0.901241 -2.97424,1.147196 -3.83345,0.927365 -0.94189,-0.240986 -1.4142,-0.904589 -1.4142,-1.987003 0,-0.88639 -0.0586,-0.992859 -0.66479,-1.208286 -0.55663,-0.1978 -0.65355,-0.33605 -0.59567,-0.849631 0.0223,-0.197489 0.25255,-0.440252 0.19312,-0.601613 -0.0713,-0.193642 -0.45152,-0.300725 -0.65773,-0.482651 -0.47661,-0.420473 -0.50559,-0.533851 -0.27076,-1.059237 0.38116,-0.852783 0.23907,-1.45772 -0.26655,-1.397285 -0.72404,0.08654 -1.20805,-0.231088 -1.20335,-0.732512 0.002,-0.24345 0.20347,-0.849213 0.45215,-1.346118 0.54305,-1.085107 1.05853,-2.755175 1.06177,-3.439909 0.002,-0.392965 -0.10284,-0.617192 -0.57399,-0.625068 -0.63174,-0.133616 -0.75204,-0.0016 -1.29579,-0.281445 0.61447,-0.260986 1.07559,-0.177317 1.65759,-0.474677 0.38805,-0.211701 0.3774,-0.278964 -0.23085,-1.457671 -0.54996,-1.065778 -0.63595,-1.46801 -0.62517,-2.924584 0.007,-0.928863 0.19111,-2.384389 0.40944,-3.234503 0.2588,-1.007734 0.32905,-1.676602 0.20184,-1.921902 -0.10731,-0.206929 -0.25486,-0.959023 -0.3279,-1.671321 -0.39697,-3.871687 2.24625,-6.657891 7.63527,-8.048299 1.68882,-0.435725 2.4684,-0.496102 6.365,-0.492967 5.2702,0.0041 6.72387,0.266734 9.66034,1.744372 3.54763,1.785174 5.66448,4.376221 9.30036,11.383753 2.505,4.827944 3.52412,6.400712 5.46796,8.438506 1.21644,1.275237 1.87644,1.787156 2.62371,2.035067 2.59587,0.861199 6.73828,1.040334 8.63233,0.373309 0.72767,-0.256271 1.05594,-0.302035 0.91376,-0.127403 -0.42,0.515882 -2.26973,1.166803 -4.10721,1.445334 l -1.84116,0.279087 0.97473,0.324687 c 0.56661,0.188738 1.88169,0.334078 3.14082,0.347111 1.94798,0.02014 2.28789,-0.03856 3.37591,-0.58325 0.73959,-0.370263 1.43415,-0.927086 1.78701,-1.432636 0.50629,-0.725364 0.5772,-0.765373 0.5772,-0.325678 0,0.745406 -0.59482,2.058768 -1.25699,2.775422 -0.94196,1.019466 -2.19264,1.728702 -4.15092,2.353901 l -1.83387,0.585477 0.85914,0.13879 c 0.47252,0.0763 2.73955,0.293439 5.03786,0.482447 6.25761,0.51462 8.71413,1.160826 10.49816,2.761651 1.12112,1.00599 1.87058,2.589926 2.01813,4.265201 l 0.1009,1.145567 -0.33356,-1.21445 c -0.62227,-2.265607 -1.92472,-3.641148 -4.09654,-4.326406 -1.36895,-0.431934 -5.22987,-0.618854 -7.81705,-0.37845 l -1.94947,0.181149 2.05777,0.729515 c 2.48394,0.880594 5.88031,2.545709 7.79791,3.823001 0.77437,0.515807 2.25808,1.797094 3.29713,2.847309 1.49212,1.508151 2.05335,2.261874 2.67028,3.586142 1.45896,3.131734 1.51869,6.27985 0.16157,8.517483 -0.58386,0.962695 -2.31109,2.455126 -2.55436,2.207133 -0.0625,-0.06364 0.0337,-0.541165 0.21371,-1.061158 0.48945,-1.414167 0.41627,-3.225022 -0.18339,-4.537738 -0.81405,-1.782022 -3.28834,-3.755607 -5.54602,-4.423705 -0.52478,-0.155295 -0.5274,-0.149531 -0.16661,0.36874 0.97638,1.402624 2.62495,4.328485 3.84244,6.819552 0.74194,1.518059 1.43493,2.79323 1.53998,2.83371 0.10505,0.04048 0.191,0.204825 0.191,0.365205 0,0.797965 2.97587,5.394792 4.13749,6.391185 1.6363,1.403562 3.81222,1.897091 5.47747,1.242369 0.34414,-0.135305 0.66685,-0.204072 0.71714,-0.152813 0.23777,0.242393 -2.12266,0.911715 -3.18403,0.902856 -3.032,-0.02531 -5.64071,-2.394158 -9.95887,-9.043212 -1.91926,-2.955255 -1.91882,-2.681807 0.002,1.241267 4.18921,8.555987 8.31252,11.110849 14.39733,8.920796 0.23827,-0.08576 -0.25896,0.535264 -1.10496,1.380052 -1.00154,1.000115 -2.05752,1.796806 -3.02681,2.283616 -1.30355,0.654682 -1.73737,0.757116 -3.48911,0.823851 -1.61652,0.06158 -2.27212,-0.01594 -3.41578,-0.403908 -1.59512,-0.541116 -4.05079,-2.124464 -5.58803,-3.603008 -0.56588,-0.544285 -1.02888,-0.915835 -1.02888,-0.825667 0,0.376472 2.22049,3.113223 3.42557,4.221996 3.0557,2.811506 6.77388,4.168658 9.02768,3.295152 0.35918,-0.139208 0.52021,-0.141317 0.43801,-0.0057 -0.21665,0.357461 -2.2859,0.888306 -3.46254,0.888306 -1.99507,0 -5.59129,-1.279331 -7.50884,-2.671218 -0.35481,-0.257552 -0.68904,-0.423505 -0.74272,-0.368782 -0.0537,0.05472 0.23903,0.842216 0.65047,1.749984 1.53656,3.390187 1.94118,4.938657 1.95261,7.472667 0.009,1.93776 -0.0679,2.4913 -0.46627,3.37089 -0.63895,1.41049 -2.45738,3.20151 -4.18035,4.11734 l -1.40795,0.7484 1.11364,-1.10193 c 1.4781,-1.46256 1.89956,-2.31699 1.8891,-3.82981 -0.0158,-2.28918 -1.10387,-3.92471 -6.04277,-9.083581 -2.43225,-2.540563 -3.13284,-3.161865 -3.13119,-2.776837 0.003,0.811946 0.94451,2.632907 2.69233,5.209778 2.31602,3.41459 2.78951,4.5435 2.68384,6.39884 -0.0656,1.1509 -0.21296,1.66599 -0.67332,2.35277 -0.65615,0.97885 -0.77564,0.90115 -0.23951,-0.15573 0.523,-1.03096 0.4437,-2.5467 -0.2011,-3.84382 -0.30305,-0.60965 -1.60798,-2.24363 -2.89984,-3.63108 -2.73147,-2.93358 -3.20993,-3.580911 -3.88709,-5.258984 l -0.49966,-1.238193 -0.005,1.38702 c -0.007,1.657487 0.59692,3.624877 1.5977,5.212197 0.82612,1.31028 2.45008,2.8952 3.44526,3.36242 0.67035,0.31472 0.64278,0.32206 -0.88033,0.23437 -3.02576,-0.17421 -5.54227,-2.03778 -7.24457,-5.36487 -0.63978,-1.25042 -1.51711,-3.705185 -2.20015,-6.155989 -0.0677,-0.24289 -0.0733,0.333083 -0.0124,1.279941 0.1351,2.101942 0.97008,5.144928 1.86026,6.779578 0.36375,0.66794 1.25491,1.95967 1.98036,2.87051 1.26327,1.5861 1.28285,1.62899 0.46329,1.0153 -1.23223,-0.9227 -2.40832,-2.073 -3.3724,-3.29842 -0.46243,-0.58777 -0.84076,-0.95532 -0.84076,-0.8168 0,0.43734 1.47986,6.24774 1.91429,7.51609 0.22878,0.66795 1.00375,2.61064 1.72215,4.31708 2.21144,5.25294 2.78657,7.50429 3.94565,15.4453 1.08756,7.45098 1.79247,10.29742 2.89676,11.69709 l 0.51808,0.65665 2.35359,-0.058 c 1.29446,-0.0319 2.69474,0.0491 3.11171,0.17991 0.41696,0.13083 1.68413,0.43397 2.81591,0.67364 1.13177,0.23968 3.08125,0.84518 4.33216,1.34556 1.25091,0.50039 2.49371,0.99386 2.76176,1.09661 1.3798,0.52893 -0.67671,1.81661 -2.97837,1.86491 -0.77437,0.0162 -1.68234,0.14427 -2.01772,0.28451 -0.9063,0.37895 -1.68103,0.31477 -3.55169,-0.29424 -1.45352,-0.4732 -2.09163,-0.54912 -4.61118,-0.54863 -1.60831,2.2e-4 -3.05648,0.086 -3.21815,0.19041 -0.51453,0.33234 -0.0734,1.00868 1.15123,1.76531 1.40028,0.86512 2.26931,2.31859 1.85646,3.10497 -0.39972,0.76137 -1.01028,0.5516 -2.93036,-1.00676 -0.47654,-0.38677 -1.4605,-1.05678 -2.18659,-1.48892 -1.45145,-0.86384 -2.83609,-2.28002 -2.99427,-3.06247 -0.0558,-0.27631 -0.14662,-1.39666 -0.2017,-2.48967 -0.12244,-2.42979 -0.88386,-4.77545 -4.67058,-14.38843 -1.42741,-3.62362 -2.94952,-7.83043 -3.38246,-9.34849 -1.60947,-5.6433 -2.09684,-7.00511 -3.23998,-9.05316 -0.64396,-1.15372 -1.27559,-2.38259 -1.40363,-2.73081 -0.12804,-0.34822 -1.21305,-4.37178 -2.41115,-8.94124 -1.19809,-4.569463 -2.20978,-8.340157 -2.24821,-8.379327 -0.11218,-0.114361 -1.06953,1.248026 -2.29775,3.26992 -3.14647,5.179667 -3.64645,10.146497 -4.63078,16.076737 -6.45689,35.66521 -19.02117,38.9845 -20.84756,0.35545 -0.0968,-2.04737 -1.16936,-4.63742 -1.47559,-6.88959 z"
               style="fill:#000000;stroke-width:0.21869841" />
            <path
               style="fill:#000000;stroke-width:0.67841691"
               d="m 290.57446,78.422258 c -1.08482,-2.027001 0.25308,-4.070502 2.66497,-4.070502 1.95276,0 2.76237,0.989154 2.76237,3.37499 0,2.304148 -4.27334,2.851765 -5.42734,0.695512 z m 5.36088,-8.943563 c 0.13637,-1.036319 0.0131,-1.710475 0.57946,-2.221591 1.442,-1.301217 4.24669,-1.017736 4.23599,0.936315 0,2.793247 -3.50729,3.729392 -4.81537,1.285276 z m -0.81464,-6.410423 c -1.06833,-1.068299 -0.43423,-2.373322 1.05069,-2.162425 0.83954,0.119229 1.52646,0.670541 1.52646,1.225126 0,1.077847 -1.78679,1.727683 -2.57715,0.937299 z m 7.32606,-2.96327 c -0.56787,-0.918823 0.19846,-2.035243 1.39687,-2.035243 0.53766,0 0.97759,0.61058 0.97759,1.35683 0,1.404541 -1.63669,1.872158 -2.37446,0.678413 z m -5.08814,-5.766523 c 0,-0.56535 0.60305,-1.01764 1.35684,-1.01764 0.75379,0 1.35684,0.45229 1.35684,1.01764 0,0.56534 -0.60305,1.01761 -1.35684,1.01761 -0.75379,0 -1.35684,-0.45227 -1.35684,-1.01761 z m 4.18781,-2.82166 c 0.2859,-1.48466 2.25717,-1.69471 2.25717,-0.24051 0,0.55457 -0.562,1.11657 -1.24884,1.24882 -0.90664,0.17461 -1.18295,-0.10175 -1.00833,-1.00833 z"
               id="path850-6"
               inkscape:connector-curvature="0"
               sodipodi:nodetypes="sssscscccccsccsscssssscsccc" />
          </g>
        </g>
        <text
           transform="scale(0.99044301,1.0096492)"
           id="text926"
           y="161.18282"
           x="-325.42276"
           style="font-style:normal;font-weight:normal;font-size:118.61180878px;line-height:1.25;font-family:sans-serif;letter-spacing:0px;word-spacing:0px;fill:#000000;fill-opacity:1;stroke:none;stroke-width:2.96529508"
           xml:space="preserve"><tspan
             style="font-style:normal;font-variant:normal;font-weight:bold;font-stretch:normal;font-family:Laksaman;-inkscape-font-specification:Laksaman;stroke-width:2.96529508"
             y="161.18282"
             x="-325.42276"
             id="tspan924"
             sodipodi:role="line">Djengu</tspan><tspan
             id="tspan928"
             style="font-style:normal;font-variant:normal;font-weight:normal;font-stretch:normal;font-family:Laksaman;-inkscape-font-specification:Laksaman;stroke-width:2.96529508"
             y="309.44757"
             x="-325.42276"
             sodipodi:role="line" /></text>
      </g>
    </g>
  </g>
</svg>
